<?xml version="1.0" encoding="windows-1252"?>
<!-- Generator: Adobe Illustrator 19.2.1, SVG Export Plug-In . SVG Version: 6.00 Build 0)  -->
<svg version="1.1" xmlns="http://www.w3.org/2000/svg" xmlns:xlink="http://www.w3.org/1999/xlink" x="0px" y="0px" viewBox="0 0 40 40" style="enable-background:new 0 0 40 40;" xml:space="preserve">
<g id="Layer_1">
	<g>
		<circle style="fill:#C8D1DB;" cx="6.5" cy="30.5" r="4"/>
		<path style="fill:#66798F;" d="M6.5,27c1.93,0,3.5,1.57,3.5,3.5c0,1.93-1.57,3.5-3.5,3.5S3,32.43,3,30.5C3,28.57,4.57,27,6.5,27     M6.5,26C4.015,26,2,28.015,2,30.5S4.015,35,6.5,35s4.5-2.015,4.5-4.5S8.985,26,6.5,26L6.5,26z"/>
	</g>
	<g>
		<circle style="fill:#66798F;" cx="6.5" cy="30.5" r="1.5"/>
	</g>
	<line style="fill:none;stroke:#66798F;stroke-miterlimit:10;" x1="11" y1="24" x2="6.5" y2="30.5"/>
	<g>
		<circle style="fill:#C8D1DB;" cx="32.5" cy="30.5" r="4"/>
		<path style="fill:#66798F;" d="M32.5,27c1.93,0,3.5,1.57,3.5,3.5c0,1.93-1.57,3.5-3.5,3.5S29,32.43,29,30.5    C29,28.57,30.57,27,32.5,27 M32.5,26c-2.485,0-4.5,2.015-4.5,4.5s2.015,4.5,4.5,4.5s4.5-2.015,4.5-4.5S34.985,26,32.5,26L32.5,26z    "/>
	</g>
	<g>
		<circle style="fill:#66798F;" cx="32.5" cy="30.5" r="1.5"/>
	</g>
	<line style="fill:none;stroke:#66798F;stroke-miterlimit:10;" x1="29" y1="24" x2="32.5" y2="30.5"/>
	<g>
		<path style="fill:#F78F8F;" d="M26.533,27.5c0.354-2.656,3.406-4.797,4.043-5.217c4.202,0.058,6.546,2.612,7.689,4.451    l-1.99,0.722c-1.292-0.646-2.498-0.972-3.589-0.972c-1.567,0-2.484,0.675-2.847,1.016H26.533z"/>
		<g>
			<path style="fill:#C74343;" d="M30.723,22.787c3.498,0.103,5.609,2.051,6.774,3.694l-1.192,0.432     c-1.289-0.617-2.504-0.93-3.617-0.93c-1.558,0-2.542,0.599-3.039,1.016h-2.499C27.75,24.952,29.994,23.284,30.723,22.787      M30.43,21.783c0,0-4.43,2.705-4.43,6.217h4.052c0,0,0.801-1.016,2.636-1.016c0.917,0,2.092,0.254,3.555,1.016L39,27     C37.396,24.083,34.519,21.783,30.43,21.783L30.43,21.783z"/>
		</g>
	</g>
	<g>
		<path style="fill:#F78F8F;" d="M15,28.5c-4.489,0-11.808-2.307-13.487-2.856c0.165-2.414,1.97-4.513,3.304-6.064    c0.696-0.81,1.273-1.481,1.541-2.079h10.134c-0.048,1.31-0.281,2.025-0.509,2.721C15.745,20.947,15.5,21.697,15.5,23    c0,1.775,0.725,2.5,2.5,2.5h5.207l4.146-4.146c1.216-1.111,1.602-2.898,0.944-4.434L24.753,8.5h2.183    c0.873,1.001,5.465,6.553,5.562,12.625l-5.86,6.16c-0.751,0.771-1.804,1.215-2.885,1.215H15z"/>
		<path style="fill:#C74343;" d="M26.707,9c1.104,1.299,5.103,6.375,5.286,11.931l-5.71,6.002C25.623,27.611,24.7,28,23.753,28H15    c-4.133,0-10.758-2.006-12.948-2.708c0.301-2.081,1.864-3.898,3.144-5.388C5.81,19.19,6.336,18.578,6.663,18h9.298    c-0.078,0.915-0.262,1.478-0.454,2.066C15.258,20.829,15,21.618,15,23c0,2.047,0.953,3,3,3h5h0.414l0.293-0.293l3.968-3.969    c1.388-1.27,1.822-3.285,1.085-5.009L25.506,9H26.707 M27.16,8H24l3.838,9.117C28.412,18.458,28.076,20.015,27,21l-4,4h-5    c-1.531,0-2-0.526-2-2c0-2.592,1-2.751,1-6H6c-0.33,1.624-5,4.762-5,9c0,0,8.789,3,14,3h8.753c1.223,0,2.394-0.494,3.247-1.37    l6-6.307C33,14.285,27.16,8,27.16,8L27.16,8z"/>
	</g>
	<rect x="19" y="8" style="fill:#36404D;" width="7.786" height="1"/>
	<g>
		<path style="fill:#F78F8F;" d="M25.875,8.5C25.117,8.5,24.5,7.827,24.5,7s0.617-1.5,1.375-1.5H28.5v3H25.875z"/>
		<path style="fill:#C74343;" d="M28,6v2h-2.125C25.393,8,25,7.551,25,7s0.393-1,0.875-1H28 M29,5h-3.125C24.84,5,24,5.896,24,7    s0.84,2,1.875,2H29V5L29,5z"/>
	</g>
	<g>
		<path style="fill:#FFC49C;" d="M6.95,18.5c-0.8,0-1.45-0.673-1.45-1.5s0.65-1.5,1.45-1.5h9.1c0.8,0,1.45,0.673,1.45,1.5    s-0.65,1.5-1.45,1.5H6.95z"/>
		<path style="fill:#A16A4A;" d="M16.05,16c0.524,0,0.95,0.449,0.95,1s-0.426,1-0.95,1h-9.1C6.426,18,6,17.551,6,17s0.426-1,0.95-1    H16.05 M16.05,15h-9.1C5.873,15,5,15.895,5,17s0.873,2,1.95,2h9.1c1.077,0,1.95-0.895,1.95-2S17.127,15,16.05,15L16.05,15z"/>
	</g>
</g>
<g id="Layer_2">
</g>
</svg>